<?xml version="1.0" encoding="UTF-8"?>
<svg id="Layer_1" data-name="Layer 1" xmlns="http://www.w3.org/2000/svg" viewBox="0 0 436.93 74.35">
  <defs>
    <style>
      .cls-1 {
        fill: #231f20;
      }
    </style>
  </defs>
  <path class="cls-1" d="M37.76,0c13.24,0,22.42,4.99,29.86,12.78l-11.73,11.15c-4.88-4.76-11.15-7.78-18.12-7.78-12.43,0-20.45,9.29-20.45,21.03s8.02,21.03,20.45,21.03c6.97,0,13.24-3.02,18.12-7.78l11.39,11.15c-6.97,7.32-16.61,12.78-29.51,12.78C15.68,74.35,0,57.97,0,37.18S15.68,0,37.76,0ZM55.76,19.17l6.62-6.39c-6.16-6.27-14.17-9.53-24.63-9.53v9.64c6.62,0,13.01,2.44,18.01,6.27ZM62.15,61.8l-6.62-6.74c-4.18,3.72-10.8,6.39-17.77,6.39v9.64c10.22,0,17.89-3.25,24.4-9.29Z"/>
  <path class="cls-1" d="M75.86,2.32h17.08v55.07h30.32v14.64h-47.4V2.32ZM88.64,60.64V5.58h-8.48v63.2l8.48-8.13Z"/>
  <path class="cls-1" d="M161.72,0h3.02l34.16,72.03h-18.36l-3.48-7.2h-27.53l-3.37,7.2h-18.35L161.72,0ZM143.13,68.77l7.55-16.15h-9.41l-7.67,16.15h9.53ZM171.24,52.63l-8.02-17.66h-.23l-8.13,17.66h16.38ZM183.32,68.77h9.64l-7.67-16.15h-9.41l7.44,16.15Z"/>
  <path class="cls-1" d="M202.84,2.32h16.96v43.68c0,9.29,4.41,12.55,10.34,12.55,6.51,0,10.57-3.25,10.57-12.55V2.32h17.08v46.24c0,16.5-12.31,25.79-27.65,25.79s-27.3-9.76-27.3-25.79V2.32ZM215.62,30.32V5.58h-8.48v24.74h8.48ZM253.49,30.32V5.58h-8.6v24.74h8.6Z"/>
  <path class="cls-1" d="M268.95,2.32h24.28c20.56,0,36.48,15.1,36.48,34.74,0,18.59-14.17,34.97-36.48,34.97h-24.28V2.32ZM281.73,68.77V5.58h-8.48v63.2h8.48ZM292.88,56.46c10.92,0,19.28-7.67,19.28-19.4,0-10.8-7.32-19.29-19.28-19.29h-6.85v38.69h6.85Z"/>
  <path class="cls-1" d="M341.32,2.32h17.08v69.7h-17.08V2.32ZM354.1,68.77v-24.86h-8.48v24.86h8.48Z"/>
  <path class="cls-1" d="M399.76,0h3.02l34.16,72.03h-18.35l-3.48-7.2h-27.53l-3.37,7.2h-18.35L399.76,0ZM381.17,68.77l7.55-16.15h-9.41l-7.67,16.15h9.53ZM409.28,52.63l-8.02-17.66h-.23l-8.13,17.66h16.38ZM421.36,68.77h9.64l-7.67-16.15h-9.41l7.44,16.15Z"/>
</svg>